<?xml version="1.0" encoding="utf-8"?>
<!-- Generator: Adobe Illustrator 23.0.1, SVG Export Plug-In . SVG Version: 6.00 Build 0)  -->
<svg version="1.1" id="Ebene_1" xmlns="http://www.w3.org/2000/svg" xmlns:xlink="http://www.w3.org/1999/xlink" x="0px" y="0px"
	 width="35.2px" height="30px" viewBox="0 0 35.2 30" style="enable-background:new 0 0 35.2 30;" xml:space="preserve">
<g>
	<path d="M31.2,28.5H4c-2.2,0-4-1.8-4-4V6.1c0-2.2,1.8-4,4-4h27.2c2.2,0,4,1.8,4,4v18.4C35.2,26.7,33.4,28.5,31.2,28.5z M4,5.1
		c-0.6,0-1,0.4-1,1v18.4c0,0.6,0.4,1,1,1h27.2c0.6,0,1-0.4,1-1V6.1c0-0.6-0.4-1-1-1H4z"/>
</g>
</svg>
