<?xml version="1.0" encoding="utf-8"?>
<!-- Generator: Adobe Illustrator 23.0.1, SVG Export Plug-In . SVG Version: 6.00 Build 0)  -->
<svg version="1.1" id="Ebene_1" xmlns="http://www.w3.org/2000/svg" xmlns:xlink="http://www.w3.org/1999/xlink" x="0px" y="0px"
	 width="35.2px" height="30px" viewBox="0 0 35.2 30" style="enable-background:new 0 0 35.2 30;" xml:space="preserve">
<path d="M17.2,0c-8.3,0-15,6.7-15,15c0,8.3,6.7,15,15,15s15-6.7,15-15C32.2,6.7,25.5,0,17.2,0z M24.5,5.5l-7.3,7.3L9.8,5.5
	C11.9,4,14.4,3,17.2,3C20,3,22.5,4,24.5,5.5z M5.2,15c0-2.8,1-5.3,2.5-7.3l7.3,7.3l-7.3,7.3C6.1,20.3,5.2,17.8,5.2,15z M9.8,24.5
	l7.3-7.3l7.3,7.3C22.5,26,20,27,17.2,27C14.4,27,11.9,26,9.8,24.5z M26.7,22.3L19.3,15l7.3-7.3c1.6,2,2.5,4.6,2.5,7.3
	C29.2,17.8,28.2,20.3,26.7,22.3z"/>
</svg>
